<svg xmlns="http://www.w3.org/2000/svg" xmlns:xlink="http://www.w3.org/1999/xlink" width="500" zoomAndPan="magnify" viewBox="0 0 375 374.999991" height="500" preserveAspectRatio="xMidYMid meet" version="1.0"><defs><g/><clipPath id="5a90ab0234"><path d="M 43 9 L 178 9 L 178 245 L 43 245 Z M 43 9 " clip-rule="nonzero"/></clipPath><clipPath id="c1a5fb344d"><path d="M 43.066406 14.402344 L 172.539062 5.921875 L 187.585938 235.679688 L 58.113281 244.160156 Z M 43.066406 14.402344 " clip-rule="nonzero"/></clipPath><clipPath id="a5b98ab5d0"><path d="M 13.75 16.324219 L 172.410156 5.929688 L 195.691406 361.417969 L 37.03125 371.8125 Z M 13.75 16.324219 " clip-rule="nonzero"/></clipPath></defs><g fill="#2c2c2c" fill-opacity="1"><g transform="translate(49.618687, 285.802881)"><g><path d="M -6.828125 0 L 38.59375 0 L 38.59375 -5.21875 C 24.921875 -8.046875 23.3125 -21.3125 33.765625 -47.4375 L 57.484375 -106.125 L 170.84375 -106.125 L 195.375 -47.03125 C 208.234375 -16.890625 211.453125 -8.84375 198.984375 -5.21875 L 198.984375 0 L 261.296875 0 L 261.296875 -5.21875 C 252.859375 -8.84375 243.203125 -16.890625 230.75 -47.03125 L 131.859375 -284.609375 L 101.703125 -270.953125 L 105.328125 -262.5 C 108.546875 -256.078125 108.9375 -250.84375 106.125 -243.609375 L 26.9375 -47.4375 C 14.46875 -16.890625 4.421875 -8.84375 -6.828125 -5.21875 Z M 59.890625 -112.15625 L 113.359375 -244.421875 L 168.4375 -112.15625 Z M 59.890625 -112.15625 "/></g></g></g><g clip-path="url(#5a90ab0234)"><g clip-path="url(#c1a5fb344d)"><g clip-path="url(#a5b98ab5d0)"><path fill="#2c2c2c" d="M 122.722656 94.800781 C 122.554688 94.6875 122.445312 94.5 122.402344 94.28125 C 122.257812 93.558594 122.179688 92.832031 122.097656 92.105469 C 119.820312 84.066406 116.167969 76.441406 114.078125 68.359375 C 110.746094 55.421875 110.925781 40.664062 114.09375 27.75 C 115.148438 23.414062 116.042969 19.085938 117.453125 14.820312 C 117.660156 14.140625 117.898438 12.914062 118.210938 11.84375 C 118.472656 10.964844 118.835938 10.207031 119.253906 9.765625 C 119.523438 9.496094 119.777344 9.511719 119.96875 9.496094 C 120.226562 9.511719 120.421875 9.628906 120.597656 9.871094 C 120.667969 9.960938 120.742188 10.117188 120.757812 10.339844 C 120.765625 10.464844 120.746094 10.6875 120.757812 10.816406 C 120.777344 11.609375 120.796875 12.40625 120.816406 13.199219 C 120.847656 15.140625 121.007812 17.105469 121.292969 19.03125 C 122.167969 24.609375 123.089844 30.378906 124.78125 35.777344 C 128.332031 47.234375 129.054688 59.703125 127.152344 71.546875 C 126.269531 76.988281 124.367188 81.984375 123.820312 87.246094 L 123.820312 87.277344 C 125.074219 93.308594 126.050781 99.425781 126.613281 105.597656 C 127.121094 111.394531 127.246094 117.214844 126.800781 123.039062 C 126.652344 125.152344 126.40625 127.238281 126.097656 129.328125 C 127.585938 126.269531 129.175781 123.300781 130.835938 120.449219 C 133.011719 116.742188 135.105469 112.71875 137.949219 109.441406 C 142.597656 104.074219 148.101562 100.082031 153.578125 95.710938 C 155.910156 93.871094 158.554688 92.421875 160.957031 90.671875 C 163.601562 88.75 166.101562 86.546875 168.777344 84.621094 C 170.417969 83.429688 171.992188 82.179688 173.601562 80.960938 C 174.085938 80.578125 174.542969 80.230469 174.992188 79.816406 C 175.171875 79.644531 175.402344 79.25 175.582031 79.078125 C 175.761719 78.90625 175.945312 78.800781 176.070312 78.757812 C 176.351562 78.675781 176.578125 78.726562 176.777344 78.871094 C 176.945312 78.988281 177.148438 79.167969 177.203125 79.546875 C 177.308594 80.144531 177.101562 80.890625 176.738281 81.675781 C 176.320312 82.566406 175.679688 83.53125 175.371094 84.125 C 173.628906 87.710938 172.121094 91.40625 170.214844 94.910156 C 165.066406 104.324219 158.988281 113.160156 149.964844 119.324219 C 144.570312 123.023438 138.800781 125.375 133.851562 128.597656 C 129.394531 131.5 125.617188 135.125 123.496094 141.15625 C 120.996094 149.664062 117.359375 157.386719 113.164062 165.273438 C 105.617188 179.433594 96.164062 194.097656 88.203125 215.035156 C 85.40625 222.382812 83.28125 229.816406 81.792969 237.269531 C 81.90625 237.039062 82.019531 236.808594 82.128906 236.578125 C 85.601562 229.792969 91.472656 220.710938 97.5 215.953125 C 104.648438 210.359375 115.941406 205.734375 123.941406 200.972656 C 127.191406 199.039062 129.96875 196.691406 132.730469 194.15625 C 133.332031 193.605469 134.097656 192.664062 134.90625 191.878906 C 135.535156 191.261719 136.203125 190.773438 136.828125 190.542969 C 137.230469 190.386719 137.492188 190.5 137.65625 190.582031 C 137.921875 190.726562 138.097656 190.96875 138.09375 191.382812 C 138.101562 191.507812 138.050781 191.703125 137.933594 191.902344 C 137.789062 192.136719 137.46875 192.539062 137.355469 192.769531 C 136.984375 193.429688 136.609375 194.058594 136.273438 194.71875 C 135.222656 196.667969 134.433594 198.757812 133.515625 200.761719 C 133.152344 201.546875 132.757812 202.339844 132.394531 203.09375 C 132.5 203.246094 132.511719 203.46875 132.363281 203.605469 C 132.125 203.875 131.921875 204.144531 131.683594 204.414062 C 130.09375 207.355469 128.363281 210.109375 126.40625 212.820312 C 126.511719 212.972656 126.527344 213.191406 126.375 213.332031 C 125.375 214.574219 124.339844 215.789062 123.234375 216.910156 C 122.878906 217.347656 122.496094 217.820312 122.113281 218.257812 C 114.9375 226.882812 106.09375 231.921875 96.515625 237.421875 C 93.203125 239.328125 89.621094 241.058594 86.519531 243.300781 C 83.539062 245.46875 81.035156 248.085938 79.753906 251.832031 C 79.648438 252.15625 79.542969 252.515625 79.46875 252.839844 C 77.902344 270.746094 79.566406 288.855469 83.582031 306.90625 C 83.691406 292.023438 91.964844 275.398438 100.214844 264.21875 C 100.390625 263.984375 100.566406 263.75 100.742188 263.515625 C 104.046875 259.03125 107.875 255.246094 112.203125 251.746094 C 112.472656 251.503906 112.886719 251.03125 113.339844 250.652344 C 113.730469 250.308594 114.125 249.996094 114.5 249.875 C 114.84375 249.757812 115.160156 249.738281 115.453125 249.84375 C 115.746094 249.953125 116.046875 250.15625 116.265625 250.554688 C 118.855469 255.609375 118.121094 263.363281 115.65625 271.425781 C 112.039062 283.320312 104.742188 295.867188 99.574219 301.144531 C 97.1875 303.59375 93.683594 305.511719 90.710938 307.773438 C 88.285156 309.621094 86.222656 311.699219 85.585938 314.609375 C 90.402344 330.3125 101.695312 354.382812 111.878906 364.003906 C 112.386719 364.480469 112.40625 365.277344 111.929688 365.785156 C 111.542969 366.191406 110.976562 366.292969 110.484375 366.070312 C 110.425781 366.136719 110.332031 366.144531 110.269531 366.179688 C 110.371094 366.269531 110.441406 366.359375 110.542969 366.449219 C 110.710938 366.628906 110.699219 366.886719 110.550781 367.054688 C 110.371094 367.226562 110.113281 367.210938 109.945312 367.0625 C 108.789062 365.925781 107.78125 364.6875 106.777344 363.414062 C 106.671875 363.296875 106.660156 363.105469 106.746094 362.972656 C 106.023438 362.128906 105.296875 361.25 104.664062 360.367188 C 104.527344 360.1875 104.570312 359.898438 104.753906 359.789062 C 104.785156 359.789062 104.785156 359.757812 104.816406 359.753906 C 100.835938 354.410156 96.847656 347.535156 93.324219 340.378906 C 93.125 340.292969 92.957031 340.113281 92.878906 339.898438 C 92.453125 338.777344 92.03125 337.691406 91.550781 336.640625 C 91.402344 336.363281 91.289062 336.050781 91.144531 335.773438 C 90.40625 334.230469 89.605469 332.722656 88.710938 331.253906 C 87.332031 330.578125 85.78125 330.265625 84.238281 330.046875 C 82.503906 329.8125 80.773438 329.636719 79.117188 329.203125 C 66.058594 325.761719 55.859375 321.269531 46.46875 311.152344 C 45.40625 309.976562 39.644531 302.742188 38.171875 299.242188 C 37.835938 298.464844 37.695312 297.808594 37.765625 297.386719 C 37.804688 297.003906 37.976562 296.738281 38.21875 296.53125 C 38.609375 296.1875 39.203125 295.988281 39.996094 295.9375 C 40.882812 295.878906 42.074219 296.054688 43.429688 296.347656 C 48.34375 297.492188 55.367188 300.664062 56.917969 301.453125 C 68.15625 307.246094 78.984375 315.007812 86.652344 325.113281 L 86.617188 325.050781 C 85.738281 322.785156 84.886719 320.484375 84.128906 318.144531 C 83.492188 316.242188 82.890625 314.308594 82.347656 312.367188 C 82.179688 311.742188 82.011719 311.117188 81.839844 310.457031 C 81.757812 310.144531 81.703125 309.832031 81.617188 309.484375 C 81.53125 309.109375 81.441406 308.734375 81.351562 308.355469 C 81.082031 307.164062 80.8125 305.972656 80.578125 304.808594 C 80.015625 302.074219 79.484375 299.304688 79.019531 296.535156 C 78.800781 295.179688 78.585938 293.824219 78.371094 292.5 C 78.25 292.125 78.132812 291.75 78.007812 291.34375 C 77.945312 291.347656 77.910156 291.320312 77.847656 291.292969 C 55.367188 282.636719 36.714844 265.320312 31.070312 241.355469 C 30.757812 239.976562 28.386719 231.054688 27.664062 226.800781 C 27.453125 225.542969 27.425781 224.652344 27.53125 224.292969 C 27.660156 223.839844 27.933594 223.632812 28.246094 223.546875 C 28.496094 223.46875 28.78125 223.449219 29.109375 223.617188 C 29.339844 223.730469 29.640625 223.933594 29.945312 224.199219 C 30.25 224.46875 30.558594 224.796875 30.789062 224.941406 C 32.355469 225.953125 33.824219 227.035156 35.472656 227.851562 C 40.671875 230.441406 44.929688 233.15625 49.171875 237.144531 C 64.648438 251.738281 77.308594 284.035156 77.308594 284.035156 C 75.359375 264.988281 76.378906 246.003906 81.429688 227.359375 C 81.429688 227.324219 81.429688 227.324219 81.425781 227.292969 C 81.085938 221.617188 78.566406 216.238281 75.367188 211.128906 C 72.097656 205.929688 68.140625 200.996094 64.976562 196.425781 C 59.417969 188.382812 55.613281 179.394531 53.929688 169.757812 C 53.007812 164.40625 52.785156 159.070312 52.9375 153.613281 C 52.988281 151.984375 53.074219 150.386719 53.160156 148.757812 C 53.179688 148.085938 53.230469 147.414062 53.28125 146.742188 C 53.28125 146.710938 53.21875 146.238281 53.207031 146.046875 C 53.21875 145.789062 53.273438 145.628906 53.359375 145.496094 C 53.476562 145.296875 53.65625 145.15625 53.84375 145.113281 C 54.03125 145.035156 54.285156 145.019531 54.582031 145.160156 C 54.945312 145.359375 55.320312 145.78125 55.648438 146.363281 C 56.121094 147.289062 56.5 148.695312 56.824219 149.28125 C 58.273438 151.957031 60.078125 154.707031 61.988281 157.097656 C 65.558594 161.511719 69.050781 165.265625 71.464844 170.488281 C 76.964844 182.488281 77.210938 195.019531 79.195312 207.820312 C 79.972656 212.867188 81.59375 217.664062 82.839844 222.613281 C 83.730469 219.691406 84.75 216.789062 85.835938 213.882812 C 91.59375 198.726562 98.140625 186.832031 104.1875 176.054688 C 104.179688 175.960938 104.171875 175.832031 104.199219 175.734375 C 105.585938 168.734375 104.082031 162.269531 101.507812 156.035156 C 98.894531 149.679688 95.179688 143.585938 92.234375 137.503906 C 88.070312 128.890625 86.785156 117.539062 88.371094 108.199219 C 88.855469 105.363281 89.800781 99.824219 91.222656 97.214844 C 91.269531 96.988281 91.289062 96.796875 91.335938 96.570312 C 91.386719 96.34375 91.601562 96.203125 91.824219 96.21875 C 92.050781 96.269531 92.191406 96.484375 92.175781 96.707031 C 92.367188 96.726562 92.535156 96.84375 92.703125 97.023438 C 92.773438 97.113281 92.878906 97.265625 92.929688 97.519531 C 92.976562 97.738281 92.972656 98.183594 93.050781 98.402344 C 93.21875 99.058594 93.484375 99.679688 93.683594 100.304688 C 94.316406 102.171875 95.160156 103.867188 96.039062 105.625 C 98.679688 110.933594 102.449219 115.496094 104.101562 121.277344 C 107.089844 131.847656 105.027344 142.207031 104.964844 152.914062 C 104.929688 159.15625 106.566406 165.195312 106.78125 171.394531 C 108.207031 168.847656 109.601562 166.335938 110.90625 163.863281 C 122.140625 142.804688 129.179688 122.917969 120.746094 85.089844 Z M 86.085938 328.113281 C 86.085938 328.113281 86.054688 328.144531 86.054688 328.144531 C 86.121094 328.171875 86.152344 328.171875 86.21875 328.199219 Z M 45.683594 307.445312 C 46.691406 308.714844 47.523438 309.710938 47.832031 310.105469 C 56.984375 319.953125 66.949219 324.300781 79.65625 327.671875 C 80.140625 327.800781 80.65625 327.894531 81.171875 327.988281 C 80.390625 327.71875 79.605469 327.421875 78.855469 327.121094 C 76.179688 326.117188 73.503906 325.175781 70.90625 323.945312 C 63.445312 320.421875 55.664062 316.34375 49.296875 311.027344 C 47.980469 309.9375 46.847656 308.640625 45.683594 307.445312 Z M 43.253906 302.410156 C 45.261719 304.414062 47.484375 306.242188 49.730469 307.941406 C 54.960938 311.933594 60.558594 315.226562 66.253906 318.550781 C 71.71875 321.726562 77.589844 325.324219 83.714844 327.40625 C 82.007812 326.628906 80.347656 325.589844 78.703125 324.773438 C 75.902344 323.363281 73.078125 322.050781 70.359375 320.445312 C 66.847656 318.351562 63.5 315.863281 60.132812 313.566406 C 56.097656 310.839844 52.121094 307.976562 48.03125 305.316406 C 46.472656 304.367188 44.757812 303.492188 43.253906 302.410156 Z M 85.183594 326.003906 C 77.664062 316.242188 67.140625 308.746094 56.195312 303.09375 C 54.714844 302.328125 47.886719 299.242188 43.101562 298.121094 C 41.96875 297.84375 40.9375 297.691406 40.175781 297.738281 C 40.113281 297.742188 40.050781 297.75 39.984375 297.753906 C 40.921875 297.945312 41.808594 298.367188 42.75 298.621094 C 43.789062 298.90625 44.910156 299.023438 45.953125 299.367188 C 48.820312 300.359375 51.484375 302.128906 54.15625 303.542969 C 56.203125 304.652344 58.335938 305.597656 60.292969 306.804688 C 63.613281 308.847656 66.671875 311.292969 69.785156 313.636719 C 73.238281 316.246094 76.75 318.785156 80.144531 321.527344 C 81.894531 322.972656 83.496094 324.523438 85.183594 326.003906 Z M 40.269531 298.6875 C 40.441406 298.867188 40.644531 299.046875 40.8125 299.195312 C 42.429688 300.042969 44.160156 300.695312 45.777344 301.546875 C 47.394531 302.394531 48.894531 303.441406 50.484375 304.359375 C 52.203125 305.359375 54.015625 306.230469 55.707031 307.265625 C 59.425781 309.570312 62.945312 312.269531 66.578125 314.707031 C 72.039062 318.363281 77.621094 321.914062 83.230469 325.367188 C 82.046875 324.300781 80.859375 323.199219 79.617188 322.199219 C 76.253906 319.488281 72.742188 316.945312 69.292969 314.335938 C 66.210938 312.023438 63.183594 309.578125 59.867188 307.566406 C 57.90625 306.355469 55.777344 305.414062 53.761719 304.335938 C 51.152344 302.914062 48.523438 301.175781 45.6875 300.214844 C 44.679688 299.867188 43.589844 299.746094 42.550781 299.464844 C 41.773438 299.257812 41.019531 298.925781 40.269531 298.6875 Z M 43.078125 301.210938 C 44.722656 302.507812 46.730469 303.488281 48.492188 304.617188 C 52.585938 307.277344 56.5625 310.140625 60.59375 312.867188 C 63.960938 315.164062 67.277344 317.65625 70.789062 319.71875 C 73.472656 321.292969 76.265625 322.609375 79.0625 323.984375 C 79.917969 324.40625 80.746094 324.894531 81.605469 325.347656 C 76.363281 322.125 71.175781 318.800781 66.082031 315.40625 C 62.453125 313.003906 58.964844 310.332031 55.214844 308.03125 C 53.523438 306.992188 51.746094 306.121094 50.023438 305.121094 C 48.464844 304.203125 46.964844 303.15625 45.351562 302.335938 C 44.625 301.9375 43.835938 301.578125 43.078125 301.210938 Z M 43.371094 303.742188 C 44.199219 304.675781 45.054688 305.605469 45.941406 306.472656 C 47.234375 307.789062 48.445312 309.207031 49.859375 310.386719 C 56.160156 315.644531 63.878906 319.691406 71.273438 323.191406 C 73.078125 324.027344 74.910156 324.734375 76.738281 325.441406 C 72.953125 323.558594 69.273438 321.378906 65.796875 319.34375 C 60.101562 316.023438 54.46875 312.664062 49.207031 308.679688 C 47.191406 307.121094 45.207031 305.5 43.371094 303.742188 Z M 113.644531 253.847656 C 111.277344 257.539062 109.519531 261.859375 107.304688 265.507812 C 98.972656 279.300781 91.648438 293.890625 86.730469 309.277344 C 93.332031 297.699219 98.957031 285.355469 104.929688 273.464844 C 108.226562 266.910156 112.007812 260.929688 113.644531 253.847656 Z M 103.070312 263.554688 C 102.804688 263.890625 102.511719 264.261719 102.25 264.628906 C 102.074219 264.863281 101.898438 265.097656 101.722656 265.332031 C 93.351562 276.644531 84.914062 293.695312 85.449219 308.628906 C 86.46875 303.339844 88.398438 298.277344 90.003906 293.105469 C 93.144531 283.1875 97.03125 272.519531 103.070312 263.554688 Z M 114.984375 251.914062 C 114.925781 251.980469 114.894531 252.015625 114.835938 252.082031 C 113.480469 260.101562 109.289062 266.617188 105.652344 273.832031 C 100.300781 284.46875 95.253906 295.46875 89.507812 305.941406 C 97.988281 293.921875 106.449219 281.105469 111.015625 267.175781 C 112.726562 262.15625 114.632812 257.222656 114.984375 251.914062 Z M 112.625 253.851562 C 101.207031 263.804688 95.21875 279.324219 90.851562 293.371094 C 89.535156 297.597656 87.988281 301.742188 86.902344 306.019531 C 91.820312 291.648438 98.761719 278.011719 106.574219 265.046875 C 108.703125 261.53125 110.410156 257.4375 112.625 253.851562 Z M 116.359375 259.277344 C 115.890625 262.332031 114.851562 265.457031 114.132812 268.085938 C 112.015625 276.121094 104.21875 290.839844 98.761719 297.4375 C 96.75 299.832031 94.703125 302.132812 92.722656 304.492188 C 94.828125 303.078125 96.9375 301.699219 98.519531 300.066406 C 103.53125 294.898438 110.65625 282.613281 114.195312 271.011719 C 115.421875 266.886719 116.242188 262.851562 116.359375 259.277344 Z M 115.585938 254.292969 C 114.925781 258.796875 113.296875 263.109375 111.863281 267.46875 C 107.53125 280.621094 99.796875 292.816406 91.785156 304.234375 C 93.851562 301.773438 95.992188 299.402344 98.058594 296.910156 C 103.460938 290.410156 111.167969 275.859375 113.257812 267.886719 C 113.871094 265.585938 114.75 262.949219 115.277344 260.269531 C 115.714844 258.234375 115.902344 256.183594 115.585938 254.292969 Z M 76.746094 289.070312 C 76.746094 289.070312 76.746094 289.101562 76.746094 289.101562 L 76.84375 289.128906 Z M 33.960938 245.148438 C 34.53125 247.023438 35.1875 248.828125 35.945312 250.625 C 41.921875 260.679688 53.242188 270.640625 60.859375 277.5 C 65.664062 281.800781 69.484375 286.136719 75.582031 288.351562 C 63.703125 281.515625 55.574219 270.234375 46.480469 260.285156 C 41.890625 255.332031 37.226562 250.761719 33.960938 245.148438 Z M 31.015625 233.71875 C 31.84375 237.132812 32.691406 240.359375 32.867188 241.113281 L 32.871094 241.144531 C 36.023438 248.453125 41.660156 253.785156 47.113281 259.703125 C 55.445312 268.777344 62.929688 278.988281 73.222656 285.863281 C 69.0625 282.152344 64.867188 278.382812 61.160156 274.292969 C 54.292969 266.71875 48.664062 258.074219 42.582031 249.839844 C 38.179688 243.886719 34.070312 239.535156 31.015625 233.71875 Z M 34.71875 229.492188 C 42.125 237.035156 47.273438 246.570312 53.074219 255.394531 C 60.078125 266.082031 67.917969 275.890625 76.136719 285.636719 C 76.019531 285.265625 75.867188 284.890625 75.710938 284.488281 C 74.699219 283.597656 73.734375 282.484375 72.824219 281.238281 C 70.480469 278.015625 68.46875 274.039062 66.71875 271.667969 C 61.023438 263.984375 55.492188 256.351562 50.53125 248.171875 C 47.027344 242.351562 44.230469 236.609375 39.40625 232.019531 C 37.949219 231.160156 36.429688 230.335938 34.851562 229.546875 C 34.785156 229.519531 34.753906 229.523438 34.71875 229.492188 Z M 30.9375 227.191406 C 43.34375 245.902344 54.796875 265.1875 70.835938 281.050781 C 72.234375 282.421875 73.480469 283.933594 74.785156 285.378906 C 66.804688 275.867188 59.199219 266.269531 52.339844 255.855469 C 45.863281 245.992188 40.226562 235.3125 31.335938 227.453125 C 31.203125 227.367188 31.070312 227.28125 30.9375 227.191406 Z M 38.277344 255.632812 C 44.792969 268.070312 55.316406 277.957031 67.738281 284.820312 C 65.1875 282.820312 62.871094 280.488281 60.265625 278.140625 C 53.765625 272.261719 44.570312 264.167969 38.277344 255.632812 Z M 29.425781 226.464844 C 29.527344 227.03125 29.632812 227.691406 29.777344 228.445312 C 29.867188 228.824219 29.921875 229.203125 30.011719 229.578125 C 33.105469 237.433594 37.941406 242.214844 43.21875 249.351562 C 49.265625 257.554688 54.894531 266.167969 61.726562 273.746094 C 65.058594 277.414062 68.78125 280.800781 72.507812 284.15625 C 71.75 283.3125 70.996094 282.472656 70.175781 281.664062 C 53.28125 264.871094 41.421875 244.277344 28.15625 224.570312 Z M 42.332031 233.898438 C 45.886719 238.0625 48.335938 242.871094 51.269531 247.773438 C 56.199219 255.953125 61.730469 263.554688 67.390625 271.210938 C 69.136719 273.582031 71.148438 277.558594 73.496094 280.78125 C 73.914062 281.355469 74.332031 281.902344 74.78125 282.414062 C 71.867188 276.839844 68.339844 271.625 65.152344 266.230469 C 58.875 255.460938 52.761719 244.777344 44.507812 235.476562 C 43.800781 234.917969 43.066406 234.394531 42.332031 233.898438 Z M 48.589844 239 C 55.21875 247.324219 60.472656 256.503906 65.917969 265.734375 C 68.207031 269.597656 70.652344 273.386719 72.949219 277.28125 C 67.148438 263.136719 59.367188 249.34375 48.589844 239 Z M 131.710938 199 C 126.484375 203.832031 119.804688 206.882812 114.019531 210.953125 C 103.269531 218.472656 93.78125 227.726562 86.269531 238.507812 C 84.84375 240.574219 83.03125 242.570312 81.546875 244.707031 C 81.492188 244.839844 81.402344 244.941406 81.347656 245.070312 C 81.613281 244.734375 81.878906 244.429688 82.144531 244.09375 C 84.117188 241.640625 86.195312 239.308594 88.269531 236.941406 C 96.511719 227.613281 105.535156 219.503906 115.492188 212.003906 C 120.832031 207.960938 127.308594 204.253906 131.710938 199 Z M 103.148438 214.183594 C 101.527344 215.179688 100.003906 216.234375 98.636719 217.28125 C 92.792969 221.898438 87.097656 230.710938 83.707031 237.335938 C 82.859375 238.984375 82.015625 240.695312 81.242188 242.5 C 82.804688 239.59375 84.664062 236.828125 86.394531 234.101562 C 90.964844 227.019531 96.546875 219.871094 103.148438 214.183594 Z M 125.21875 211.71875 C 123.101562 213.894531 120.878906 215.984375 118.589844 217.949219 C 112.890625 222.875 106.25 226.972656 100.097656 231.292969 C 96.261719 234 92.554688 236.757812 89 239.824219 C 90.988281 238.578125 92.976562 237.335938 94.894531 235.96875 C 99.515625 232.636719 103.894531 228.945312 108.621094 225.769531 C 111.824219 223.613281 115.382812 222.042969 118.617188 219.859375 C 119.421875 219.007812 120.195312 218.160156 120.960938 217.21875 C 122.464844 215.402344 123.90625 213.554688 125.21875 211.71875 Z M 130.09375 203.976562 C 129.390625 204.882812 128.652344 205.761719 127.871094 206.511719 C 125.570312 208.828125 122.902344 210.851562 120.429688 212.988281 C 113.109375 219.390625 105.4375 225.277344 97.699219 231.164062 C 94.667969 233.496094 91.835938 235.945312 89.105469 238.542969 C 92.488281 235.710938 95.949219 233.125 99.570312 230.566406 C 105.722656 226.246094 112.300781 222.152344 118 217.253906 C 121.558594 214.1875 124.9375 210.84375 128.117188 207.324219 C 128.808594 206.257812 129.46875 205.132812 130.09375 203.976562 Z M 131.492188 200.511719 C 127.089844 205.289062 121.050781 208.835938 116.011719 212.640625 C 106.117188 220.101562 97.121094 228.144531 88.941406 237.472656 C 88.703125 237.742188 88.464844 238.011719 88.226562 238.25 C 91.074219 235.515625 94.027344 232.933594 97.210938 230.496094 C 104.914062 224.578125 112.585938 218.722656 119.910156 212.351562 C 122.347656 210.21875 125.023438 208.226562 127.289062 205.914062 C 128.78125 204.382812 130.222656 202.503906 131.492188 200.511719 Z M 113.941406 208.285156 C 112.09375 209.234375 110.210938 210.183594 108.398438 211.164062 C 99.78125 217.207031 92.707031 225.949219 87.1875 234.527344 C 86.8125 235.125 86.433594 235.691406 86.027344 236.292969 C 86.261719 235.957031 86.464844 235.660156 86.699219 235.355469 C 93.953125 225.007812 103.53125 215.65625 113.941406 208.285156 Z M 115.832031 222.554688 C 113.558594 223.851562 111.25 225.023438 109.082031 226.46875 C 105.144531 229.085938 101.457031 232.097656 97.691406 234.921875 C 104.226562 231.152344 110.390625 227.5 115.832031 222.554688 Z M 133.515625 195.886719 C 131.589844 197.636719 129.628906 199.292969 127.527344 200.769531 C 127.527344 200.769531 127.5625 200.800781 127.5625 200.800781 C 127.671875 201.015625 127.625 201.273438 127.410156 201.382812 C 123.667969 203.601562 119.734375 205.324219 116.140625 207.789062 C 107.9375 213.359375 100.203125 220.234375 93.628906 227.863281 C 99.566406 221.234375 106.28125 215.316406 113.589844 210.21875 C 120.015625 205.71875 127.574219 202.453125 132.953125 196.558594 C 133.128906 196.359375 133.304688 196.125 133.515625 195.886719 Z M 55.398438 150.328125 C 55.6875 151.839844 56.039062 153.34375 56.578125 154.773438 C 57.347656 156.796875 58.609375 158.558594 59.253906 160.621094 C 62.976562 172.667969 66.859375 184.804688 71.574219 196.503906 C 72.984375 200.042969 74.609375 203.472656 76.269531 206.898438 C 76.488281 207.359375 76.746094 207.855469 77 208.316406 C 76.015625 205.957031 75.5 203.414062 74.738281 201.011719 C 73.128906 195.925781 71.429688 190.90625 69.824219 185.820312 C 67.171875 177.425781 64.511719 168.90625 61.019531 160.824219 C 59.667969 157.695312 57.753906 154.699219 56.152344 151.683594 C 55.867188 151.191406 55.648438 150.757812 55.398438 150.328125 Z M 60.910156 158.632812 C 61.203125 159.25 61.496094 159.835938 61.761719 160.457031 C 65.253906 168.570312 67.917969 177.125 70.601562 185.546875 C 72.210938 190.632812 73.90625 195.648438 75.515625 200.738281 C 75.914062 201.953125 76.21875 203.238281 76.589844 204.488281 C 76.074219 201.972656 75.621094 199.457031 74.980469 196.980469 C 73.363281 190.75 71.210938 184.648438 69.53125 178.417969 C 68.140625 173.253906 67.066406 167.050781 64.058594 162.4375 C 63.019531 161.167969 61.980469 159.929688 60.910156 158.632812 Z M 56.035156 171.246094 C 57.789062 180.046875 61.382812 188.253906 66.488281 195.660156 C 68.421875 198.460938 70.617188 201.34375 72.789062 204.355469 C 71.878906 202.628906 70.972656 200.90625 70.03125 199.214844 C 66.976562 193.875 64.011719 188.527344 61.230469 183.007812 C 59.257812 179.15625 57.445312 175.261719 56.035156 171.246094 Z M 54.824219 151.800781 L 54.792969 152.3125 C 54.851562 153.679688 54.976562 155.070312 55.191406 156.425781 C 55.714844 159.578125 56.917969 162.398438 57.878906 165.390625 C 59.152344 169.226562 60.238281 173.167969 61.726562 176.957031 C 62.984375 180.121094 64.582031 183.105469 65.871094 186.269531 C 67.964844 191.453125 70.269531 196.523438 72.761719 201.488281 C 72.054688 199.945312 71.410156 198.394531 70.765625 196.8125 C 66.050781 185.082031 62.164062 172.914062 58.410156 160.867188 C 57.769531 158.835938 56.507812 157.074219 55.773438 155.082031 C 55.351562 153.996094 55.054688 152.867188 54.820312 151.738281 Z M 66.875 166.109375 C 68.4375 170.019531 69.328125 174.355469 70.34375 178.175781 C 72.023438 184.402344 74.175781 190.503906 75.792969 196.738281 C 76.003906 197.519531 76.183594 198.304688 76.363281 199.121094 C 75.234375 189.671875 74.121094 180.410156 69.996094 171.445312 C 69.105469 169.496094 68.035156 167.753906 66.875 166.109375 Z M 54.714844 158.367188 C 54.765625 160.628906 54.882812 162.878906 55.09375 165.128906 C 56.511719 171.246094 59.085938 176.96875 61.972656 182.640625 C 64.273438 187.171875 66.664062 191.570312 69.152344 195.992188 C 67.707031 192.902344 66.355469 189.773438 65.0625 186.578125 C 63.777344 183.445312 62.175781 180.429688 60.917969 177.261719 C 59.429688 173.476562 58.3125 169.535156 57.070312 165.667969 C 56.273438 163.203125 55.320312 160.84375 54.714844 158.367188 Z M 89.488281 116.46875 C 89.472656 123.511719 90.945312 130.929688 93.855469 136.949219 C 96.101562 141.613281 98.796875 146.277344 101.117188 151.0625 C 100.878906 150.3125 100.605469 149.597656 100.308594 148.917969 C 96.070312 139.164062 91.160156 128.847656 89.695312 118.207031 C 89.628906 117.640625 89.558594 117.039062 89.488281 116.46875 Z M 99.019531 114.191406 C 99.652344 117.015625 99.8125 119.964844 100.070312 122.910156 C 100.390625 126.839844 100.96875 130.816406 101.035156 134.761719 C 101.085938 136.953125 101.074219 139.21875 101.15625 141.441406 C 101.675781 144.019531 102.195312 146.628906 102.746094 149.203125 C 102.746094 149.171875 102.742188 149.109375 102.738281 149.078125 C 102.417969 144.671875 102.800781 140.3125 102.800781 135.917969 C 102.828125 129.515625 102.328125 122.859375 100.429688 116.710938 C 99.957031 115.847656 99.488281 115.019531 99.019531 114.191406 Z M 102.558594 122.015625 C 103.402344 126.609375 103.644531 131.308594 103.628906 135.894531 C 103.605469 139.941406 103.296875 143.976562 103.496094 148.007812 C 103.945312 139.285156 105.007812 130.710938 102.558594 122.015625 Z M 90.613281 105.917969 C 90.445312 106.789062 90.304688 107.5625 90.191406 108.269531 C 90.023438 111.53125 90.078125 114.777344 90.519531 118.121094 C 91.964844 128.539062 96.703125 138.609375 100.894531 148.179688 C 100.800781 147.675781 100.734375 147.167969 100.667969 146.632812 C 100.054688 144.570312 99.378906 142.511719 98.734375 140.453125 C 96.8125 134.433594 94.289062 128.515625 92.800781 122.335938 C 91.558594 116.972656 90.65625 111.425781 90.613281 105.917969 Z M 91.699219 101.132812 L 91.675781 101.230469 C 91.050781 108.214844 92.023438 115.316406 93.648438 122.121094 C 95.101562 128.269531 97.621094 134.15625 99.542969 140.175781 C 99.789062 140.988281 100.066406 141.800781 100.339844 142.609375 C 100.316406 142.261719 100.292969 141.910156 100.304688 141.558594 C 98.65625 133.417969 97.070312 125.273438 95.332031 117.171875 C 94.785156 114.660156 94.328125 112.109375 93.71875 109.601562 C 92.996094 106.8125 92.140625 103.972656 91.726562 101.066406 Z M 92.902344 102.964844 C 93.363281 105.132812 93.980469 107.257812 94.503906 109.390625 C 95.144531 111.894531 95.597656 114.445312 96.148438 116.988281 C 97.5625 123.554688 98.855469 130.15625 100.179688 136.726562 C 100.167969 136.058594 100.15625 135.421875 100.144531 134.753906 C 100.078125 130.839844 99.5 126.867188 99.179688 122.9375 C 98.855469 118.945312 98.683594 114.882812 97.203125 111.21875 C 96.273438 109.6875 95.375 108.15625 94.570312 106.550781 C 94.015625 105.375 93.429688 104.203125 92.902344 102.964844 Z M 128.328125 130.296875 C 128.265625 130.367188 128.238281 130.398438 128.179688 130.464844 C 127.945312 130.800781 127.714844 131.164062 127.480469 131.5 C 127.453125 131.535156 127.421875 131.566406 127.394531 131.601562 C 127.363281 131.667969 127.335938 131.730469 127.308594 131.765625 C 127.726562 131.324219 128.144531 130.914062 128.59375 130.503906 C 128.527344 130.476562 128.464844 130.449219 128.398438 130.421875 C 128.363281 130.390625 128.332031 130.359375 128.328125 130.296875 Z M 150.8125 100.128906 C 146.722656 103.328125 142.761719 106.578125 139.296875 110.566406 C 136.542969 113.769531 134.476562 117.695312 132.355469 121.308594 C 131.011719 123.625 129.703125 126.035156 128.460938 128.472656 L 128.546875 128.339844 C 129.800781 126.539062 131.121094 124.796875 132.4375 123.054688 C 133.253906 121.917969 134.105469 120.777344 134.921875 119.640625 C 138.835938 114.226562 142.3125 108.933594 146.894531 104.046875 C 148.148438 102.753906 149.464844 101.425781 150.8125 100.128906 Z M 170.628906 90.484375 C 165.808594 98.636719 159.460938 105.773438 152.1875 111.886719 C 147.65625 115.65625 142.960938 119.371094 138.292969 122.988281 C 136.6875 124.207031 135.046875 125.460938 133.546875 126.835938 C 134.371094 126.304688 135.230469 125.800781 136.089844 125.332031 C 136.882812 124.769531 137.671875 124.207031 138.464844 123.644531 C 144.777344 119.378906 150.667969 114.46875 156.253906 109.328125 C 159.257812 106.550781 162.554688 103.882812 165.015625 100.601562 C 166.339844 98.472656 167.597656 96.289062 168.824219 94.109375 C 169.445312 92.886719 170.039062 91.703125 170.628906 90.484375 Z M 167.703125 93.511719 C 161.984375 100.511719 154.8125 106.300781 147.746094 112.144531 C 143.453125 115.675781 139.449219 119.726562 135.570312 123.707031 C 134.972656 124.320312 134.375 124.902344 133.746094 125.515625 C 135.042969 124.410156 136.410156 123.367188 137.773438 122.320312 C 142.441406 118.734375 147.136719 115.019531 151.667969 111.25 C 157.792969 106.074219 163.265625 100.140625 167.703125 93.511719 Z M 171.207031 87.199219 C 169.269531 89.207031 167.226562 91.058594 165.21875 93.007812 C 160.007812 98.0625 154.960938 103.167969 149.578125 108.042969 C 145.878906 111.40625 142.09375 114.871094 138.738281 118.5625 C 136.953125 120.527344 135.238281 122.519531 133.488281 124.511719 C 133.96875 124.035156 134.445312 123.558594 134.925781 123.082031 C 138.835938 119.097656 142.835938 115.015625 147.1875 111.449219 C 156.078125 104.179688 165.125 96.929688 171.207031 87.199219 Z M 172.472656 84.601562 C 170.488281 85.910156 168.46875 87.1875 166.59375 88.710938 C 160.429688 93.828125 155.023438 99.757812 149.40625 105.445312 C 143.730469 111.167969 138.136719 117.171875 133.171875 123.578125 L 133.085938 123.710938 C 134.746094 121.789062 136.433594 119.863281 138.125 117.96875 C 141.511719 114.242188 145.328125 110.773438 149.023438 107.378906 C 154.40625 102.503906 159.421875 97.398438 164.632812 92.34375 C 167.273438 89.847656 170.039062 87.371094 172.472656 84.601562 Z M 161.554688 105.605469 C 159.992188 107.074219 158.367188 108.488281 156.804688 109.929688 C 152.207031 114.148438 147.410156 118.21875 142.363281 121.894531 C 144.609375 120.695312 146.882812 119.398438 149.074219 117.886719 C 154.046875 114.503906 158.070312 110.289062 161.554688 105.605469 Z M 160.234375 93.269531 C 159.53125 93.730469 158.832031 94.1875 158.128906 94.648438 C 154.511719 97.785156 150.726562 101.25 147.539062 104.640625 C 144.652344 107.730469 142.191406 111.011719 139.800781 114.355469 C 142.707031 111.105469 145.75 107.945312 148.828125 104.84375 C 152.621094 100.996094 156.339844 97.027344 160.234375 93.269531 Z M 124.945312 43.1875 C 125.257812 47.433594 125.28125 51.734375 125.054688 56.015625 C 124.714844 62.503906 124.078125 68.851562 123.328125 75.367188 C 123 78.15625 122.679688 81.015625 122.671875 83.847656 C 123.484375 79.71875 124.808594 75.621094 125.511719 71.242188 C 127.011719 62.066406 126.855469 52.425781 124.945312 43.1875 Z M 113.890625 38.75 C 112.808594 48.503906 113.347656 58.691406 115.738281 67.933594 C 116.886719 72.347656 118.472656 76.609375 120.058594 80.898438 C 119.15625 76.816406 118.378906 72.726562 117.601562 68.636719 C 115.734375 58.632812 113.972656 48.777344 113.890625 38.75 Z M 115.0625 31.382812 C 115.066406 31.414062 115.035156 31.445312 115.039062 31.476562 C 113.980469 44.03125 116.144531 56.121094 118.449219 68.488281 C 119.183594 72.421875 119.949219 76.320312 120.8125 80.246094 C 120.816406 79.796875 120.847656 79.351562 120.886719 78.933594 C 120.230469 75.25 119.382812 71.546875 118.792969 67.890625 C 117.347656 58.941406 116.472656 49.953125 115.65625 40.898438 C 115.335938 37.445312 115.070312 34.40625 115.0625 31.382812 Z M 123.070312 35.921875 C 123.628906 44.007812 123.429688 52.140625 122.773438 60.113281 C 122.421875 64.4375 122.765625 69.222656 122.316406 73.554688 C 122.195312 74.613281 122.070312 75.640625 121.945312 76.636719 C 121.992188 77.332031 122.035156 78.03125 122.113281 78.726562 C 122.230469 77.570312 122.347656 76.449219 122.496094 75.292969 C 123.246094 68.777344 123.882812 62.429688 124.222656 55.972656 C 124.570312 49.613281 124.351562 43.320312 123.394531 37.015625 C 123.316406 36.765625 123.269531 36.542969 123.191406 36.328125 C 123.152344 36.203125 123.109375 36.046875 123.070312 35.921875 Z M 119.066406 15.671875 C 117.261719 27.511719 117.941406 39.792969 118.96875 51.605469 C 119.519531 58.097656 120.035156 64.496094 120.839844 70.941406 C 120.816406 70.5625 120.824219 70.210938 120.800781 69.832031 C 120.503906 63.863281 120.308594 57.984375 120.269531 51.996094 C 120.226562 41.140625 119.5625 26.660156 119.066406 15.671875 Z M 120.257812 23.140625 C 120.660156 32.703125 121.078125 43.472656 121.128906 52.003906 C 121.167969 57.957031 121.363281 63.835938 121.65625 69.773438 C 121.671875 70.027344 121.6875 70.28125 121.707031 70.535156 C 121.828125 67.054688 121.683594 63.371094 121.972656 60.007812 C 122.746094 50.464844 122.863281 40.585938 121.789062 30.941406 C 121.175781 28.402344 120.683594 25.757812 120.257812 23.140625 Z M 117.632812 20.511719 C 117.078125 22.714844 116.582031 24.910156 116.027344 27.113281 C 115.722656 31.6875 116.054688 35.808594 116.507812 40.777344 C 117.3125 49.644531 118.144531 58.476562 119.546875 67.238281 C 118.984375 62.050781 118.550781 56.886719 118.113281 51.660156 C 117.253906 41.460938 116.621094 30.832031 117.632812 20.511719 Z M 117.632812 20.511719 " fill-opacity="1" fill-rule="evenodd"/></g></g></g><g fill="#2c2c2c" fill-opacity="1"><g transform="translate(48.84136, 370.365874)"><g><path d="M 0.5625 0 L 3.6875 0 L 5.828125 -5.296875 L 17.171875 -5.296875 L 19.359375 0 L 22.453125 0 L 12.875 -23.28125 L 10.140625 -23.28125 Z M 6.953125 -8.015625 L 11.515625 -19.1875 L 16.0625 -8.015625 Z M 6.953125 -8.015625 "/></g></g></g><g fill="#2c2c2c" fill-opacity="1"><g transform="translate(81.975929, 370.365874)"><g><path d="M 3.390625 0 L 6.28125 0 L 6.28125 -18.234375 L 19.15625 0 L 21.890625 0 L 21.890625 -23.28125 L 19.03125 -23.28125 L 19.03125 -5.0625 L 6.15625 -23.28125 L 3.390625 -23.28125 Z M 3.390625 0 "/></g></g></g><g fill="#2c2c2c" fill-opacity="1"><g transform="translate(117.372321, 370.365874)"><g><path d="M 3.390625 0 L 6.28125 0 L 6.28125 -18.234375 L 19.15625 0 L 21.890625 0 L 21.890625 -23.28125 L 19.03125 -23.28125 L 19.03125 -5.0625 L 6.15625 -23.28125 L 3.390625 -23.28125 Z M 3.390625 0 "/></g></g></g><g fill="#2c2c2c" fill-opacity="1"><g transform="translate(152.768717, 370.365874)"><g><path d="M 0.5625 0 L 3.6875 0 L 5.828125 -5.296875 L 17.171875 -5.296875 L 19.359375 0 L 22.453125 0 L 12.875 -23.28125 L 10.140625 -23.28125 Z M 6.953125 -8.015625 L 11.515625 -19.1875 L 16.0625 -8.015625 Z M 6.953125 -8.015625 "/></g></g></g><g fill="#2c2c2c" fill-opacity="1"><g transform="translate(185.903282, 370.365874)"><g><path d="M 3.390625 0 L 12.84375 0 C 17.53125 0 20.453125 -2.5 20.453125 -6.515625 C 20.453125 -9.140625 19.15625 -11.109375 16.765625 -12.078125 C 18.65625 -13.046875 19.796875 -14.84375 19.796875 -17.09375 C 19.796875 -20.859375 16.859375 -23.28125 12.40625 -23.28125 L 3.390625 -23.28125 Z M 6.328125 -2.734375 L 6.328125 -10.546875 L 12.734375 -10.546875 C 15.765625 -10.546875 17.46875 -9.109375 17.46875 -6.65625 C 17.46875 -4.15625 15.765625 -2.734375 12.78125 -2.734375 Z M 6.328125 -13.203125 L 6.328125 -20.5625 L 12.34375 -20.5625 C 15.171875 -20.5625 16.796875 -19.234375 16.796875 -16.859375 C 16.796875 -14.53125 15.203125 -13.203125 12.34375 -13.203125 Z M 6.328125 -13.203125 "/></g></g></g><g fill="#2c2c2c" fill-opacity="1"><g transform="translate(218.33934, 370.365874)"><g><path d="M 3.390625 0 L 17.890625 0 L 17.890625 -2.734375 L 6.328125 -2.734375 L 6.328125 -10.515625 L 16.703125 -10.515625 L 16.703125 -13.203125 L 6.328125 -13.203125 L 6.328125 -20.5625 L 17.53125 -20.5625 L 17.53125 -23.28125 L 3.390625 -23.28125 Z M 3.390625 0 "/></g></g></g><g fill="#2c2c2c" fill-opacity="1"><g transform="translate(248.513601, 370.365874)"><g><path d="M 3.390625 0 L 17.625 0 L 17.625 -2.796875 L 6.328125 -2.796875 L 6.328125 -23.28125 L 3.390625 -23.28125 Z M 3.390625 0 "/></g></g></g><g fill="#2c2c2c" fill-opacity="1"><g transform="translate(277.290848, 370.365874)"><g><path d="M 3.390625 0 L 17.625 0 L 17.625 -2.796875 L 6.328125 -2.796875 L 6.328125 -23.28125 L 3.390625 -23.28125 Z M 3.390625 0 "/></g></g></g><g fill="#2c2c2c" fill-opacity="1"><g transform="translate(306.068109, 370.365874)"><g><path d="M 3.390625 0 L 17.890625 0 L 17.890625 -2.734375 L 6.328125 -2.734375 L 6.328125 -10.515625 L 16.703125 -10.515625 L 16.703125 -13.203125 L 6.328125 -13.203125 L 6.328125 -20.5625 L 17.53125 -20.5625 L 17.53125 -23.28125 L 3.390625 -23.28125 Z M 3.390625 0 "/></g></g></g></svg>