<svg xmlns="http://www.w3.org/2000/svg" xmlns:xlink="http://www.w3.org/1999/xlink" width="500" zoomAndPan="magnify" viewBox="0 0 375 374.999991" height="500" preserveAspectRatio="xMidYMid meet" version="1.0"><defs><g/></defs><g fill="#2c2c2c" fill-opacity="1"><g transform="translate(17.394298, 223.98977)"><g><path d="M 0.359375 0 L 7.171875 0 L 9.0625 -4.84375 L 20.203125 -4.84375 L 22.09375 0 L 28.90625 0 L 17.765625 -28.0625 L 11.5 -28.0625 Z M 10.703125 -9.859375 L 14.640625 -20.125 L 18.609375 -9.859375 Z M 10.703125 -9.859375 "/></g></g></g><g fill="#2c2c2c" fill-opacity="1"><g transform="translate(58.850975, 223.98977)"><g><path d="M 3.375 0 L 9.703125 0 L 9.703125 -17.203125 L 22.09375 0 L 27.5 0 L 27.5 -28.0625 L 21.171875 -28.0625 L 21.171875 -10.984375 L 8.78125 -28.0625 L 3.375 -28.0625 Z M 3.375 0 "/></g></g></g><g fill="#2c2c2c" fill-opacity="1"><g transform="translate(101.911245, 223.98977)"><g><path d="M 3.375 0 L 9.703125 0 L 9.703125 -17.203125 L 22.09375 0 L 27.5 0 L 27.5 -28.0625 L 21.171875 -28.0625 L 21.171875 -10.984375 L 8.78125 -28.0625 L 3.375 -28.0625 Z M 3.375 0 "/></g></g></g><g fill="#2c2c2c" fill-opacity="1"><g transform="translate(144.971514, 223.98977)"><g><path d="M 0.359375 0 L 7.171875 0 L 9.0625 -4.84375 L 20.203125 -4.84375 L 22.09375 0 L 28.90625 0 L 17.765625 -28.0625 L 11.5 -28.0625 Z M 10.703125 -9.859375 L 14.640625 -20.125 L 18.609375 -9.859375 Z M 10.703125 -9.859375 "/></g></g></g><g fill="#2c2c2c" fill-opacity="1"><g transform="translate(186.428192, 223.98977)"><g><path d="M 3.375 0 L 16.5625 0 C 22.25 0 26.09375 -3.125 26.09375 -7.859375 C 26.09375 -10.859375 24.53125 -13.265625 21.890625 -14.4375 C 24.015625 -15.671875 25.265625 -17.875 25.265625 -20.53125 C 25.265625 -25.140625 21.609375 -28.0625 15.921875 -28.0625 L 3.375 -28.0625 Z M 9.65625 -5.046875 L 9.65625 -11.78125 L 15.59375 -11.78125 C 18.125 -11.78125 19.5625 -10.546875 19.5625 -8.421875 C 19.5625 -6.296875 18.125 -5.046875 15.59375 -5.046875 Z M 9.65625 -16.640625 L 9.65625 -23.015625 L 14.953125 -23.015625 C 17.40625 -23.015625 18.765625 -21.890625 18.765625 -19.84375 C 18.765625 -17.796875 17.40625 -16.640625 14.953125 -16.640625 Z M 9.65625 -16.640625 "/></g></g></g><g fill="#2c2c2c" fill-opacity="1"><g transform="translate(226.241177, 223.98977)"><g><path d="M 3.375 0 L 22.25 0 L 22.25 -5.40625 L 9.703125 -5.40625 L 9.703125 -11.546875 L 20.734375 -11.546875 L 20.734375 -16.875 L 9.703125 -16.875 L 9.703125 -22.6875 L 21.8125 -22.6875 L 21.8125 -28.0625 L 3.375 -28.0625 Z M 3.375 0 "/></g></g></g><g fill="#2c2c2c" fill-opacity="1"><g transform="translate(262.726701, 223.98977)"><g><path d="M 3.375 0 L 22.015625 0 L 22.015625 -5.96875 L 9.75 -5.96875 L 9.75 -28.0625 L 3.375 -28.0625 Z M 3.375 0 "/></g></g></g><g fill="#2c2c2c" fill-opacity="1"><g transform="translate(298.009544, 223.98977)"><g><path d="M 3.375 0 L 22.015625 0 L 22.015625 -5.96875 L 9.75 -5.96875 L 9.75 -28.0625 L 3.375 -28.0625 Z M 3.375 0 "/></g></g></g><g fill="#2c2c2c" fill-opacity="1"><g transform="translate(333.292363, 223.98977)"><g><path d="M 3.375 0 L 22.25 0 L 22.25 -5.40625 L 9.703125 -5.40625 L 9.703125 -11.546875 L 20.734375 -11.546875 L 20.734375 -16.875 L 9.703125 -16.875 L 9.703125 -22.6875 L 21.8125 -22.6875 L 21.8125 -28.0625 L 3.375 -28.0625 Z M 3.375 0 "/></g></g></g></svg>