<svg xmlns="http://www.w3.org/2000/svg" xmlns:xlink="http://www.w3.org/1999/xlink" width="500" zoomAndPan="magnify" viewBox="0 0 375 374.999991" height="500" preserveAspectRatio="xMidYMid meet" version="1.0"><defs><g/><clipPath id="da285bb61d"><path d="M 24 16 L 192 16 L 192 309 L 24 309 Z M 24 16 " clip-rule="nonzero"/></clipPath><clipPath id="22b34ac667"><path d="M 24.445312 22.734375 L 185.351562 12.195312 L 204.074219 298.082031 L 43.167969 308.621094 Z M 24.445312 22.734375 " clip-rule="nonzero"/></clipPath><clipPath id="2b0940a195"><path d="M -12.019531 25.121094 L 185.554688 12.179688 L 214.523438 454.484375 L 16.945312 467.421875 Z M -12.019531 25.121094 " clip-rule="nonzero"/></clipPath></defs><g fill="#2c2c2c" fill-opacity="1"><g transform="translate(32.59538, 360.339063)"><g><path d="M -8.5 0 L -8.5 -6.5 C -1.5 -8.832031 5.332031 -13.414062 12 -20.25 C 18.664062 -27.082031 25.832031 -40 33.5 -59 L 132.015625 -303.03125 C 135.015625 -311.039062 134.679688 -318.878906 131.015625 -326.546875 L 126.515625 -337.046875 L 164.015625 -354.046875 L 287.03125 -58.5 C 294.695312 -39.832031 301.613281 -27.082031 307.78125 -20.25 C 313.957031 -13.414062 319.710938 -8.832031 325.046875 -6.5 L 325.046875 0 L 247.53125 0 L 247.53125 -6.5 C 255.195312 -8.832031 258.363281 -13.414062 257.03125 -20.25 C 255.695312 -27.082031 251.03125 -39.832031 243.03125 -58.5 L 212.53125 -132.015625 L 71.515625 -132.015625 L 42 -59 C 29.332031 -27.332031 31.332031 -9.832031 48 -6.5 L 48 0 Z M 74.515625 -139.515625 L 209.53125 -139.515625 L 141.015625 -304.03125 Z M 74.515625 -139.515625 "/></g></g></g><g clip-path="url(#da285bb61d)"><g clip-path="url(#22b34ac667)"><g clip-path="url(#2b0940a195)"><path fill="#2c2c2c" d="M 123.535156 122.746094 C 123.328125 122.601562 123.191406 122.371094 123.136719 122.097656 C 122.957031 121.199219 122.859375 120.292969 122.761719 119.386719 C 119.925781 109.390625 115.382812 99.902344 112.78125 89.851562 C 108.636719 73.757812 108.863281 55.402344 112.800781 39.335938 C 114.113281 33.9375 115.226562 28.558594 116.980469 23.253906 C 117.238281 22.402344 117.535156 20.878906 117.925781 19.546875 C 118.25 18.453125 118.703125 17.511719 119.222656 16.964844 C 119.554688 16.625 119.875 16.644531 120.109375 16.628906 C 120.429688 16.648438 120.675781 16.789062 120.894531 17.09375 C 120.980469 17.207031 121.074219 17.398438 121.089844 17.675781 C 121.101562 17.832031 121.078125 18.109375 121.089844 18.269531 C 121.113281 19.257812 121.140625 20.246094 121.164062 21.234375 C 121.203125 23.648438 121.402344 26.09375 121.757812 28.484375 C 122.847656 35.425781 123.992188 42.601562 126.09375 49.320312 C 130.515625 63.570312 131.410156 79.082031 129.046875 93.816406 C 127.945312 100.585938 125.582031 106.800781 124.898438 113.34375 L 124.902344 113.382812 C 126.464844 120.890625 127.675781 128.496094 128.375 136.175781 C 129.007812 143.386719 129.164062 150.625 128.609375 157.871094 C 128.421875 160.5 128.117188 163.09375 127.734375 165.695312 C 129.585938 161.890625 131.5625 158.195312 133.628906 154.652344 C 136.335938 150.039062 138.941406 145.03125 142.476562 140.957031 C 148.261719 134.28125 155.105469 129.316406 161.921875 123.875 C 164.820312 121.585938 168.113281 119.785156 171.097656 117.609375 C 174.390625 115.214844 177.496094 112.476562 180.828125 110.078125 C 182.871094 108.597656 184.828125 107.042969 186.828125 105.523438 C 187.433594 105.050781 187.996094 104.617188 188.558594 104.105469 C 188.78125 103.890625 189.066406 103.398438 189.289062 103.183594 C 189.515625 102.972656 189.742188 102.839844 189.898438 102.789062 C 190.25 102.6875 190.53125 102.746094 190.78125 102.929688 C 190.988281 103.074219 191.238281 103.296875 191.308594 103.765625 C 191.4375 104.511719 191.179688 105.4375 190.730469 106.417969 C 190.207031 107.523438 189.414062 108.722656 189.027344 109.460938 C 186.863281 113.921875 184.984375 118.523438 182.617188 122.878906 C 176.210938 134.589844 168.652344 145.582031 157.425781 153.25 C 150.714844 157.851562 143.539062 160.777344 137.382812 164.785156 C 131.832031 168.398438 127.136719 172.90625 124.496094 180.410156 C 121.386719 190.992188 116.867188 200.601562 111.644531 210.410156 C 102.257812 228.023438 90.5 246.265625 80.59375 272.3125 C 77.113281 281.453125 74.46875 290.699219 72.621094 299.972656 C 72.761719 299.6875 72.898438 299.398438 73.039062 299.113281 C 77.359375 290.667969 84.664062 279.375 92.160156 273.457031 C 101.054688 266.492188 115.097656 260.742188 125.050781 254.820312 C 129.09375 252.414062 132.546875 249.496094 135.988281 246.335938 C 136.734375 245.65625 137.6875 244.484375 138.695312 243.503906 C 139.476562 242.742188 140.308594 242.132812 141.082031 241.84375 C 141.582031 241.652344 141.910156 241.789062 142.113281 241.894531 C 142.441406 242.070312 142.660156 242.375 142.65625 242.890625 C 142.664062 243.046875 142.601562 243.289062 142.460938 243.535156 C 142.28125 243.824219 141.878906 244.328125 141.738281 244.613281 C 141.277344 245.4375 140.8125 246.21875 140.390625 247.039062 C 139.082031 249.460938 138.105469 252.0625 136.960938 254.554688 C 136.511719 255.535156 136.019531 256.515625 135.566406 257.457031 C 135.699219 257.648438 135.714844 257.925781 135.527344 258.09375 C 135.234375 258.429688 134.976562 258.765625 134.683594 259.101562 C 132.703125 262.757812 130.550781 266.1875 128.117188 269.554688 C 128.25 269.746094 128.265625 270.019531 128.078125 270.191406 C 126.835938 271.738281 125.546875 273.25 124.171875 274.648438 C 123.730469 275.191406 123.253906 275.777344 122.777344 276.324219 C 113.851562 287.050781 102.851562 293.316406 90.9375 300.160156 C 86.8125 302.53125 82.359375 304.683594 78.5 307.472656 C 74.792969 310.171875 71.679688 313.425781 70.082031 318.085938 C 69.949219 318.492188 69.820312 318.9375 69.730469 319.339844 C 67.78125 341.613281 69.851562 364.140625 74.847656 386.59375 C 74.980469 368.085938 85.273438 347.402344 95.539062 333.496094 C 95.757812 333.203125 95.976562 332.914062 96.195312 332.621094 C 100.304688 327.042969 105.066406 322.332031 110.449219 317.980469 C 110.785156 317.679688 111.300781 317.089844 111.863281 316.617188 C 112.351562 316.191406 112.839844 315.800781 113.308594 315.652344 C 113.734375 315.503906 114.128906 315.480469 114.492188 315.613281 C 114.859375 315.75 115.230469 316 115.503906 316.5 C 118.726562 322.785156 117.8125 332.433594 114.746094 342.460938 C 110.246094 357.257812 101.167969 372.867188 94.742188 379.429688 C 91.773438 382.476562 87.410156 384.863281 83.714844 387.679688 C 80.695312 389.976562 78.128906 392.5625 77.335938 396.179688 C 83.332031 415.714844 97.375 445.660156 110.046875 457.628906 C 110.679688 458.21875 110.703125 459.207031 110.113281 459.84375 C 109.628906 460.347656 108.925781 460.472656 108.3125 460.199219 C 108.238281 460.28125 108.121094 460.289062 108.042969 460.332031 C 108.171875 460.445312 108.257812 460.558594 108.382812 460.667969 C 108.597656 460.890625 108.578125 461.210938 108.394531 461.421875 C 108.167969 461.632812 107.851562 461.613281 107.640625 461.429688 C 106.199219 460.019531 104.949219 458.476562 103.699219 456.894531 C 103.570312 456.742188 103.554688 456.507812 103.664062 456.34375 C 102.761719 455.292969 101.859375 454.203125 101.074219 453.105469 C 100.898438 452.878906 100.957031 452.515625 101.183594 452.382812 C 101.222656 452.382812 101.222656 452.339844 101.261719 452.339844 C 96.308594 445.691406 91.351562 437.140625 86.964844 428.234375 C 86.71875 428.132812 86.507812 427.910156 86.410156 427.636719 C 85.882812 426.246094 85.359375 424.894531 84.757812 423.585938 C 84.578125 423.242188 84.433594 422.855469 84.25 422.507812 C 83.332031 420.589844 82.339844 418.710938 81.226562 416.882812 C 79.507812 416.046875 77.582031 415.65625 75.664062 415.386719 C 73.503906 415.089844 71.351562 414.875 69.292969 414.335938 C 53.046875 410.050781 40.359375 404.464844 28.679688 391.878906 C 27.355469 390.417969 20.1875 381.417969 18.359375 377.0625 C 17.9375 376.097656 17.765625 375.277344 17.851562 374.757812 C 17.898438 374.277344 18.113281 373.949219 18.414062 373.691406 C 18.902344 373.261719 19.636719 373.015625 20.625 372.953125 C 21.730469 372.878906 23.210938 373.097656 24.898438 373.464844 C 31.011719 374.886719 39.75 378.832031 41.675781 379.8125 C 55.660156 387.019531 69.128906 396.675781 78.667969 409.246094 L 78.625 409.167969 C 77.527344 406.347656 76.46875 403.488281 75.523438 400.578125 C 74.734375 398.210938 73.984375 395.804688 73.3125 393.390625 C 73.101562 392.613281 72.890625 391.835938 72.679688 391.015625 C 72.574219 390.628906 72.511719 390.234375 72.402344 389.804688 C 72.292969 389.339844 72.183594 388.871094 72.074219 388.402344 C 71.738281 386.917969 71.402344 385.433594 71.109375 383.988281 C 70.410156 380.585938 69.75 377.144531 69.167969 373.695312 C 68.898438 372.007812 68.628906 370.324219 68.363281 368.675781 C 68.214844 368.210938 68.066406 367.746094 67.914062 367.238281 C 67.835938 367.246094 67.792969 367.207031 67.710938 367.171875 C 39.746094 356.40625 16.546875 334.867188 9.523438 305.054688 C 9.132812 303.339844 6.1875 292.238281 5.285156 286.949219 C 5.023438 285.382812 4.992188 284.273438 5.121094 283.832031 C 5.28125 283.265625 5.621094 283.003906 6.011719 282.902344 C 6.320312 282.800781 6.675781 282.777344 7.085938 282.988281 C 7.371094 283.128906 7.746094 283.382812 8.125 283.714844 C 8.503906 284.046875 8.886719 284.457031 9.175781 284.636719 C 11.121094 285.894531 12.949219 287.242188 15 288.253906 C 21.46875 291.476562 26.761719 294.855469 32.039062 299.816406 C 51.296875 317.96875 67.039062 358.144531 67.039062 358.144531 C 64.617188 334.453125 65.882812 310.835938 72.167969 287.640625 C 72.167969 287.601562 72.167969 287.601562 72.164062 287.5625 C 71.742188 280.496094 68.609375 273.808594 64.628906 267.453125 C 60.558594 260.984375 55.640625 254.847656 51.703125 249.164062 C 44.785156 239.15625 40.050781 227.976562 37.960938 215.988281 C 36.808594 209.328125 36.535156 202.691406 36.722656 195.902344 C 36.789062 193.878906 36.898438 191.890625 37 189.863281 C 37.027344 189.03125 37.089844 188.195312 37.15625 187.359375 C 37.152344 187.316406 37.074219 186.730469 37.058594 186.492188 C 37.078125 186.175781 37.144531 185.972656 37.25 185.804688 C 37.394531 185.558594 37.621094 185.386719 37.855469 185.332031 C 38.085938 185.234375 38.402344 185.214844 38.769531 185.390625 C 39.222656 185.636719 39.691406 186.160156 40.09375 186.886719 C 40.683594 188.039062 41.15625 189.789062 41.5625 190.515625 C 43.363281 193.84375 45.609375 197.261719 47.980469 200.238281 C 52.421875 205.730469 56.769531 210.398438 59.769531 216.898438 C 66.613281 231.824219 66.921875 247.414062 69.390625 263.335938 C 70.355469 269.613281 72.371094 275.582031 73.921875 281.742188 C 75.03125 278.101562 76.300781 274.492188 77.648438 270.878906 C 84.8125 252.027344 92.957031 237.230469 100.476562 223.820312 C 100.46875 223.703125 100.460938 223.542969 100.492188 223.425781 C 102.21875 214.714844 100.347656 206.675781 97.144531 198.921875 C 93.890625 191.011719 89.273438 183.429688 85.609375 175.863281 C 80.429688 165.148438 78.832031 151.03125 80.804688 139.410156 C 81.40625 135.886719 82.578125 128.992188 84.347656 125.746094 C 84.410156 125.464844 84.433594 125.226562 84.492188 124.945312 C 84.554688 124.664062 84.820312 124.488281 85.097656 124.507812 C 85.378906 124.570312 85.554688 124.835938 85.535156 125.113281 C 85.773438 125.140625 85.980469 125.285156 86.195312 125.507812 C 86.28125 125.621094 86.414062 125.808594 86.472656 126.125 C 86.53125 126.398438 86.527344 126.953125 86.625 127.222656 C 86.835938 128.042969 87.164062 128.8125 87.414062 129.589844 C 88.199219 131.914062 89.25 134.023438 90.34375 136.210938 C 93.628906 142.808594 98.316406 148.484375 100.375 155.679688 C 104.085938 168.828125 101.523438 181.714844 101.445312 195.03125 C 101.398438 202.800781 103.4375 210.316406 103.703125 218.023438 C 105.476562 214.855469 107.214844 211.730469 108.835938 208.652344 C 122.808594 182.460938 131.570312 157.71875 121.078125 110.664062 Z M 77.960938 412.976562 C 77.960938 412.976562 77.925781 413.019531 77.925781 413.019531 C 78.003906 413.054688 78.046875 413.050781 78.125 413.085938 Z M 27.703125 387.265625 C 28.957031 388.847656 29.988281 390.089844 30.375 390.578125 C 41.757812 402.828125 54.15625 408.234375 69.960938 412.429688 C 70.566406 412.589844 71.207031 412.707031 71.847656 412.824219 C 70.875 412.488281 69.902344 412.117188 68.964844 411.742188 C 65.636719 410.496094 62.308594 409.328125 59.078125 407.792969 C 49.796875 403.410156 40.117188 398.339844 32.195312 391.726562 C 30.5625 390.367188 29.148438 388.757812 27.703125 387.265625 Z M 24.679688 381.007812 C 27.179688 383.496094 29.941406 385.773438 32.734375 387.886719 C 39.242188 392.851562 46.207031 396.949219 53.292969 401.082031 C 60.085938 405.035156 67.394531 409.507812 75.011719 412.101562 C 72.886719 411.128906 70.820312 409.839844 68.773438 408.824219 C 65.292969 407.070312 61.777344 405.4375 58.398438 403.441406 C 54.027344 400.835938 49.863281 397.742188 45.675781 394.886719 C 40.65625 391.488281 35.710938 387.929688 30.621094 384.617188 C 28.679688 383.4375 26.550781 382.351562 24.679688 381.007812 Z M 76.839844 410.355469 C 67.484375 398.210938 54.394531 388.886719 40.78125 381.851562 C 38.933594 380.90625 30.441406 377.0625 24.488281 375.671875 C 23.078125 375.328125 21.796875 375.132812 20.851562 375.195312 C 20.773438 375.199219 20.691406 375.207031 20.613281 375.210938 C 21.777344 375.453125 22.882812 375.972656 24.050781 376.292969 C 25.34375 376.644531 26.738281 376.789062 28.035156 377.21875 C 31.601562 378.453125 34.917969 380.652344 38.242188 382.414062 C 40.789062 383.792969 43.441406 384.96875 45.875 386.472656 C 50.003906 389.015625 53.808594 392.054688 57.683594 394.96875 C 61.976562 398.214844 66.34375 401.375 70.570312 404.785156 C 72.75 406.582031 74.738281 408.511719 76.839844 410.355469 Z M 20.96875 376.375 C 21.179688 376.601562 21.433594 376.820312 21.644531 377.003906 C 23.652344 378.0625 25.804688 378.871094 27.816406 379.929688 C 29.828125 380.984375 31.695312 382.289062 33.671875 383.429688 C 35.8125 384.675781 38.0625 385.753906 40.167969 387.042969 C 44.792969 389.910156 49.175781 393.269531 53.691406 396.300781 C 60.488281 400.847656 67.433594 405.265625 74.410156 409.5625 C 72.9375 408.234375 71.460938 406.863281 69.910156 405.621094 C 65.730469 402.25 61.363281 399.085938 57.070312 395.84375 C 53.234375 392.964844 49.46875 389.921875 45.34375 387.417969 C 42.90625 385.914062 40.253906 384.742188 37.75 383.398438 C 34.503906 381.628906 31.234375 379.46875 27.707031 378.273438 C 26.453125 377.839844 25.09375 377.691406 23.804688 377.339844 C 22.835938 377.085938 21.898438 376.671875 20.96875 376.375 Z M 24.460938 379.515625 C 26.507812 381.125 29.003906 382.347656 31.195312 383.75 C 36.285156 387.0625 41.234375 390.621094 46.25 394.015625 C 50.441406 396.871094 54.566406 399.96875 58.933594 402.535156 C 62.269531 404.496094 65.746094 406.128906 69.226562 407.84375 C 70.289062 408.367188 71.320312 408.972656 72.386719 409.539062 C 65.863281 405.527344 59.414062 401.394531 53.074219 397.171875 C 48.558594 394.179688 44.222656 390.859375 39.558594 387.996094 C 37.453125 386.707031 35.242188 385.625 33.101562 384.378906 C 31.164062 383.234375 29.296875 381.933594 27.285156 380.914062 C 26.382812 380.417969 25.402344 379.96875 24.460938 379.515625 Z M 24.824219 382.660156 C 25.851562 383.820312 26.917969 384.980469 28.019531 386.058594 C 29.632812 387.695312 31.136719 389.457031 32.894531 390.929688 C 40.734375 397.46875 50.332031 402.503906 59.53125 406.855469 C 61.78125 407.894531 64.058594 408.777344 66.332031 409.65625 C 61.625 407.3125 57.046875 404.601562 52.722656 402.070312 C 45.636719 397.9375 38.628906 393.761719 32.082031 388.800781 C 29.578125 386.867188 27.109375 384.847656 24.824219 382.660156 Z M 112.246094 320.59375 C 109.296875 325.1875 107.113281 330.558594 104.359375 335.097656 C 93.992188 352.257812 84.878906 370.40625 78.765625 389.546875 C 86.972656 375.144531 93.972656 359.789062 101.402344 345 C 105.503906 336.84375 110.207031 329.40625 112.246094 320.59375 Z M 99.089844 332.667969 C 98.757812 333.085938 98.394531 333.546875 98.066406 334.003906 C 97.847656 334.296875 97.628906 334.585938 97.410156 334.878906 C 87 348.953125 76.503906 370.164062 77.167969 388.742188 C 78.4375 382.160156 80.839844 375.863281 82.835938 369.433594 C 86.742188 357.089844 91.578125 343.820312 99.089844 332.667969 Z M 113.910156 318.1875 C 113.835938 318.273438 113.796875 318.316406 113.726562 318.398438 C 112.039062 328.375 106.828125 336.480469 102.304688 345.453125 C 95.640625 358.6875 89.367188 372.371094 82.21875 385.398438 C 92.765625 370.445312 103.292969 354.503906 108.972656 337.171875 C 111.097656 330.933594 113.46875 324.792969 113.910156 318.1875 Z M 110.976562 320.597656 C 96.773438 332.980469 89.320312 352.289062 83.886719 369.757812 C 82.25 375.015625 80.328125 380.175781 78.972656 385.492188 C 85.09375 367.621094 93.730469 350.652344 103.449219 334.523438 C 106.09375 330.148438 108.21875 325.058594 110.976562 320.597656 Z M 115.617188 327.347656 C 115.035156 331.148438 113.746094 335.039062 112.847656 338.304688 C 110.214844 348.304688 100.519531 366.609375 93.726562 374.820312 C 91.226562 377.796875 88.679688 380.65625 86.21875 383.59375 C 88.839844 381.835938 91.460938 380.121094 93.425781 378.089844 C 99.660156 371.65625 108.527344 356.378906 112.929688 341.945312 C 114.457031 336.8125 115.472656 331.792969 115.617188 327.347656 Z M 114.65625 321.152344 C 113.835938 326.75 111.808594 332.113281 110.027344 337.539062 C 104.640625 353.898438 95.015625 369.070312 85.050781 383.273438 C 87.621094 380.210938 90.28125 377.265625 92.851562 374.164062 C 99.574219 366.078125 109.164062 347.976562 111.765625 338.058594 C 112.527344 335.195312 113.621094 331.914062 114.273438 328.585938 C 114.820312 326.050781 115.050781 323.503906 114.65625 321.152344 Z M 66.339844 364.410156 C 66.339844 364.410156 66.34375 364.449219 66.34375 364.449219 L 66.464844 364.480469 Z M 13.117188 309.773438 C 13.828125 312.105469 14.648438 314.347656 15.585938 316.585938 C 23.019531 329.09375 37.105469 341.484375 46.578125 350.015625 C 52.554688 355.367188 57.308594 360.761719 64.894531 363.515625 C 50.117188 355.011719 40.003906 340.976562 28.695312 328.601562 C 22.980469 322.441406 17.183594 316.757812 13.117188 309.773438 Z M 9.453125 295.550781 C 10.484375 299.804688 11.539062 303.816406 11.761719 304.75 L 11.761719 304.789062 C 15.6875 313.882812 22.699219 320.515625 29.480469 327.878906 C 39.847656 339.164062 49.15625 351.867188 61.960938 360.417969 C 56.785156 355.804688 51.5625 351.113281 46.953125 346.027344 C 38.410156 336.605469 31.40625 325.851562 23.84375 315.609375 C 18.363281 308.203125 13.257812 302.792969 9.453125 295.550781 Z M 14.0625 290.296875 C 23.273438 299.679688 29.675781 311.542969 36.894531 322.519531 C 45.609375 335.816406 55.363281 348.011719 65.585938 360.140625 C 65.4375 359.675781 65.25 359.210938 65.058594 358.710938 C 63.796875 357.605469 62.59375 356.214844 61.464844 354.667969 C 58.546875 350.65625 56.042969 345.710938 53.871094 342.761719 C 46.785156 333.203125 39.902344 323.707031 33.730469 313.535156 C 29.371094 306.292969 25.894531 299.152344 19.894531 293.441406 C 18.082031 292.371094 16.191406 291.347656 14.226562 290.367188 C 14.144531 290.332031 14.105469 290.335938 14.0625 290.296875 Z M 9.359375 287.4375 C 24.789062 310.710938 39.039062 334.699219 58.992188 354.433594 C 60.726562 356.140625 62.277344 358.019531 63.902344 359.816406 C 53.972656 347.984375 44.515625 336.046875 35.980469 323.09375 C 27.925781 310.824219 20.914062 297.535156 9.855469 287.761719 C 9.6875 287.652344 9.523438 287.542969 9.359375 287.4375 Z M 18.488281 322.8125 C 26.59375 338.289062 39.683594 350.585938 55.140625 359.121094 C 51.964844 356.636719 49.082031 353.734375 45.839844 350.816406 C 37.753906 343.5 26.316406 333.433594 18.488281 322.8125 Z M 7.476562 286.527344 C 7.601562 287.234375 7.734375 288.058594 7.914062 288.996094 C 8.023438 289.464844 8.09375 289.9375 8.207031 290.402344 C 12.054688 300.175781 18.070312 306.121094 24.632812 315 C 32.15625 325.207031 39.15625 335.921875 47.660156 345.347656 C 51.800781 349.910156 56.4375 354.125 61.066406 358.296875 C 60.128906 357.25 59.1875 356.203125 58.171875 355.199219 C 37.152344 334.308594 22.398438 308.691406 5.894531 284.175781 Z M 23.535156 295.777344 C 27.953125 300.957031 31 306.9375 34.648438 313.039062 C 40.78125 323.214844 47.660156 332.667969 54.703125 342.191406 C 56.878906 345.140625 59.382812 350.089844 62.296875 354.097656 C 62.820312 354.816406 63.339844 355.496094 63.898438 356.132812 C 60.273438 349.199219 55.886719 342.710938 51.921875 335.996094 C 44.109375 322.601562 36.503906 309.3125 26.238281 297.742188 C 25.359375 297.046875 24.445312 296.394531 23.535156 295.777344 Z M 31.320312 302.125 C 39.5625 312.480469 46.097656 323.898438 52.871094 335.378906 C 55.722656 340.183594 58.765625 344.898438 61.617188 349.742188 C 54.402344 332.148438 44.722656 314.992188 31.320312 302.125 Z M 134.71875 252.363281 C 128.21875 258.375 119.90625 262.167969 112.710938 267.234375 C 99.339844 276.589844 87.53125 288.101562 78.1875 301.511719 C 76.414062 304.082031 74.160156 306.566406 72.316406 309.222656 C 72.246094 309.386719 72.136719 309.511719 72.066406 309.675781 C 72.398438 309.257812 72.726562 308.878906 73.058594 308.460938 C 75.511719 305.410156 78.09375 302.507812 80.675781 299.5625 C 90.929688 287.957031 102.15625 277.871094 114.539062 268.542969 C 121.183594 263.511719 129.242188 258.902344 134.71875 252.363281 Z M 99.1875 271.25 C 97.167969 272.492188 95.273438 273.804688 93.574219 275.105469 C 86.304688 280.851562 79.21875 291.816406 75.003906 300.054688 C 73.949219 302.105469 72.898438 304.234375 71.9375 306.476562 C 73.878906 302.863281 76.191406 299.421875 78.34375 296.03125 C 84.027344 287.222656 90.972656 278.328125 99.1875 271.25 Z M 126.640625 268.1875 C 124.003906 270.894531 121.242188 273.492188 118.394531 275.9375 C 111.304688 282.066406 103.042969 287.164062 95.390625 292.539062 C 90.617188 295.902344 86.011719 299.332031 81.585938 303.148438 C 84.058594 301.601562 86.53125 300.050781 88.917969 298.351562 C 94.667969 294.210938 100.113281 289.613281 105.996094 285.664062 C 109.980469 282.984375 114.40625 281.03125 118.429688 278.3125 C 119.429688 277.253906 120.390625 276.203125 121.34375 275.03125 C 123.21875 272.769531 125.007812 270.472656 126.640625 268.1875 Z M 132.707031 258.558594 C 131.828125 259.683594 130.910156 260.773438 129.941406 261.710938 C 127.078125 264.589844 123.757812 267.105469 120.683594 269.765625 C 111.578125 277.730469 102.03125 285.050781 92.410156 292.378906 C 88.636719 295.277344 85.113281 298.324219 81.71875 301.554688 C 85.925781 298.03125 90.230469 294.816406 94.738281 291.628906 C 102.386719 286.257812 110.574219 281.164062 117.664062 275.074219 C 122.085938 271.257812 126.292969 267.097656 130.246094 262.71875 C 131.109375 261.394531 131.929688 259.996094 132.707031 258.558594 Z M 134.445312 254.242188 C 128.96875 260.1875 121.453125 264.601562 115.1875 269.332031 C 102.878906 278.617188 91.6875 288.621094 81.511719 300.222656 C 81.21875 300.558594 80.921875 300.894531 80.625 301.191406 C 84.164062 297.789062 87.839844 294.578125 91.800781 291.546875 C 101.382812 284.183594 110.929688 276.902344 120.035156 268.976562 C 123.070312 266.320312 126.394531 263.84375 129.21875 260.964844 C 131.074219 259.058594 132.863281 256.722656 134.445312 254.242188 Z M 112.613281 263.914062 C 110.3125 265.09375 107.972656 266.277344 105.714844 267.496094 C 94.996094 275.011719 86.199219 285.890625 79.332031 296.5625 C 78.863281 297.304688 78.394531 298.011719 77.890625 298.757812 C 78.179688 298.339844 78.433594 297.96875 78.726562 297.59375 C 87.746094 284.71875 99.664062 273.082031 112.613281 263.914062 Z M 114.964844 281.667969 C 112.136719 283.28125 109.261719 284.734375 106.566406 286.539062 C 101.667969 289.789062 97.082031 293.539062 92.398438 297.054688 C 100.53125 292.359375 108.195312 287.816406 114.964844 281.667969 Z M 136.960938 248.492188 C 134.566406 250.667969 132.125 252.730469 129.511719 254.566406 C 129.511719 254.566406 129.554688 254.601562 129.554688 254.601562 C 129.691406 254.871094 129.632812 255.191406 129.363281 255.328125 C 124.710938 258.089844 119.820312 260.234375 115.347656 263.300781 C 105.140625 270.226562 95.519531 278.78125 87.347656 288.269531 C 94.730469 280.023438 103.082031 272.660156 112.175781 266.320312 C 120.167969 260.726562 129.570312 256.664062 136.261719 249.332031 C 136.484375 249.078125 136.703125 248.785156 136.960938 248.492188 Z M 39.785156 191.820312 C 40.144531 193.699219 40.585938 195.570312 41.253906 197.351562 C 42.210938 199.863281 43.78125 202.058594 44.585938 204.621094 C 49.210938 219.609375 54.042969 234.707031 59.910156 249.257812 C 61.664062 253.660156 63.6875 257.925781 65.75 262.191406 C 66.023438 262.765625 66.339844 263.378906 66.65625 263.953125 C 65.433594 261.019531 64.789062 257.855469 63.84375 254.867188 C 61.84375 248.539062 59.730469 242.296875 57.730469 235.972656 C 54.433594 225.527344 51.125 214.929688 46.78125 204.871094 C 45.097656 200.980469 42.714844 197.253906 40.726562 193.503906 C 40.371094 192.890625 40.097656 192.355469 39.785156 191.820312 Z M 46.640625 202.148438 C 47.007812 202.917969 47.375 203.644531 47.703125 204.417969 C 52.046875 214.511719 55.359375 225.152344 58.699219 235.628906 C 60.699219 241.957031 62.8125 248.199219 64.808594 254.523438 C 65.304688 256.039062 65.6875 257.636719 66.144531 259.191406 C 65.503906 256.0625 64.945312 252.929688 64.148438 249.855469 C 62.132812 242.101562 59.457031 234.511719 57.367188 226.761719 C 55.636719 220.339844 54.300781 212.621094 50.558594 206.882812 C 49.265625 205.304688 47.976562 203.765625 46.640625 202.148438 Z M 40.578125 217.839844 C 42.761719 228.789062 47.230469 238.996094 53.582031 248.207031 C 55.988281 251.695312 58.71875 255.28125 61.421875 259.027344 C 60.289062 256.882812 59.160156 254.738281 57.992188 252.632812 C 54.1875 245.988281 50.503906 239.335938 47.042969 232.472656 C 44.589844 227.679688 42.332031 222.835938 40.578125 217.839844 Z M 39.070312 193.648438 L 39.035156 194.285156 C 39.105469 195.984375 39.257812 197.71875 39.527344 199.40625 C 40.179688 203.324219 41.679688 206.832031 42.875 210.558594 C 44.453125 215.328125 45.804688 220.230469 47.660156 224.941406 C 49.222656 228.882812 51.210938 232.59375 52.816406 236.53125 C 55.417969 242.976562 58.285156 249.285156 61.386719 255.460938 C 60.507812 253.539062 59.707031 251.609375 58.902344 249.640625 C 53.035156 235.050781 48.203125 219.914062 43.535156 204.925781 C 42.734375 202.402344 41.164062 200.207031 40.25 197.734375 C 39.726562 196.378906 39.355469 194.980469 39.066406 193.570312 Z M 54.066406 211.449219 C 56.007812 216.3125 57.113281 221.707031 58.375 226.460938 C 60.46875 234.207031 63.144531 241.796875 65.15625 249.550781 C 65.421875 250.523438 65.640625 251.5 65.867188 252.515625 C 64.464844 240.761719 63.074219 229.242188 57.945312 218.089844 C 56.835938 215.664062 55.507812 213.492188 54.066406 211.449219 Z M 38.933594 201.820312 C 39 204.628906 39.144531 207.433594 39.40625 210.230469 C 41.171875 217.839844 44.371094 224.960938 47.964844 232.015625 C 50.828125 237.652344 53.800781 243.121094 56.894531 248.625 C 55.097656 244.78125 53.417969 240.890625 51.808594 236.914062 C 50.207031 233.015625 48.21875 229.265625 46.652344 225.324219 C 44.800781 220.613281 43.410156 215.710938 41.867188 210.898438 C 40.871094 207.835938 39.691406 204.902344 38.933594 201.820312 Z M 82.191406 149.699219 C 82.171875 158.457031 84.003906 167.6875 87.625 175.175781 C 90.421875 180.976562 93.773438 186.777344 96.660156 192.730469 C 96.359375 191.800781 96.023438 190.910156 95.652344 190.0625 C 90.378906 177.929688 84.269531 165.09375 82.453125 151.863281 C 82.367188 151.15625 82.277344 150.40625 82.191406 149.699219 Z M 94.050781 146.863281 C 94.835938 150.378906 95.039062 154.050781 95.355469 157.714844 C 95.753906 162.601562 96.476562 167.542969 96.558594 172.453125 C 96.621094 175.183594 96.605469 177.996094 96.707031 180.761719 C 97.351562 183.96875 98 187.214844 98.6875 190.417969 C 98.683594 190.378906 98.679688 190.300781 98.675781 190.261719 C 98.277344 184.78125 98.753906 179.359375 98.753906 173.894531 C 98.785156 165.925781 98.164062 157.648438 95.800781 149.996094 C 95.21875 148.925781 94.632812 147.894531 94.050781 146.863281 Z M 98.453125 156.597656 C 99.5 162.316406 99.804688 168.160156 99.78125 173.867188 C 99.753906 178.898438 99.371094 183.917969 99.621094 188.933594 C 100.175781 178.078125 101.5 167.414062 98.453125 156.597656 Z M 83.589844 136.574219 C 83.386719 137.65625 83.210938 138.621094 83.070312 139.5 C 82.859375 143.554688 82.925781 147.59375 83.476562 151.753906 C 85.277344 164.710938 91.167969 177.242188 96.386719 189.144531 C 96.265625 188.519531 96.183594 187.890625 96.101562 187.222656 C 95.339844 184.65625 94.496094 182.097656 93.695312 179.535156 C 91.304688 172.042969 88.167969 164.683594 86.316406 156.996094 C 84.769531 150.324219 83.644531 143.425781 83.589844 136.574219 Z M 84.945312 130.621094 L 84.914062 130.742188 C 84.136719 139.429688 85.347656 148.265625 87.367188 156.730469 C 89.175781 164.378906 92.308594 171.699219 94.703125 179.191406 C 95.007812 180.199219 95.351562 181.207031 95.691406 182.214844 C 95.664062 181.78125 95.636719 181.347656 95.648438 180.910156 C 93.597656 170.785156 91.625 160.652344 89.460938 150.570312 C 88.78125 147.445312 88.214844 144.273438 87.457031 141.152344 C 86.558594 137.6875 85.492188 134.152344 84.980469 130.539062 Z M 86.441406 132.902344 C 87.015625 135.597656 87.78125 138.242188 88.429688 140.890625 C 89.230469 144.007812 89.792969 147.183594 90.476562 150.347656 C 92.238281 158.511719 93.847656 166.726562 95.492188 174.898438 C 95.476562 174.070312 95.464844 173.277344 95.449219 172.445312 C 95.367188 167.578125 94.648438 162.632812 94.25 157.746094 C 93.84375 152.78125 93.632812 147.722656 91.789062 143.167969 C 90.632812 141.261719 89.519531 139.355469 88.515625 137.359375 C 87.828125 135.898438 87.097656 134.441406 86.441406 132.902344 Z M 130.507812 166.902344 C 130.433594 166.984375 130.394531 167.027344 130.324219 167.109375 C 130.03125 167.527344 129.746094 167.980469 129.457031 168.394531 C 129.417969 168.4375 129.382812 168.480469 129.34375 168.523438 C 129.3125 168.605469 129.277344 168.683594 129.238281 168.726562 C 129.757812 168.179688 130.28125 167.667969 130.839844 167.15625 C 130.757812 167.121094 130.679688 167.085938 130.597656 167.054688 C 130.554688 167.015625 130.511719 166.980469 130.507812 166.902344 Z M 158.476562 129.371094 C 153.390625 133.347656 148.464844 137.394531 144.152344 142.355469 C 140.730469 146.34375 138.15625 151.226562 135.519531 155.714844 C 133.847656 158.601562 132.21875 161.597656 130.675781 164.632812 L 130.785156 164.464844 C 132.339844 162.222656 133.980469 160.058594 135.621094 157.890625 C 136.640625 156.476562 137.695312 155.058594 138.710938 153.644531 C 143.578125 146.90625 147.902344 140.324219 153.605469 134.246094 C 155.164062 132.640625 156.800781 130.988281 158.476562 129.371094 Z M 183.128906 117.375 C 177.136719 127.515625 169.238281 136.390625 160.1875 143.996094 C 154.550781 148.6875 148.714844 153.308594 142.90625 157.808594 C 140.90625 159.324219 138.871094 160.886719 137 162.59375 C 138.027344 161.929688 139.09375 161.308594 140.164062 160.722656 C 141.148438 160.023438 142.132812 159.324219 143.117188 158.625 C 150.972656 153.316406 158.296875 147.210938 165.25 140.8125 C 168.984375 137.359375 173.085938 134.039062 176.148438 129.957031 C 177.796875 127.3125 179.363281 124.597656 180.886719 121.882812 C 181.660156 120.363281 182.394531 118.890625 183.128906 117.375 Z M 179.492188 121.140625 C 172.375 129.847656 163.457031 137.046875 154.664062 144.320312 C 149.324219 148.710938 144.34375 153.753906 139.519531 158.703125 C 138.777344 159.464844 138.03125 160.1875 137.25 160.953125 C 138.863281 159.578125 140.5625 158.277344 142.257812 156.980469 C 148.066406 152.519531 153.90625 147.894531 159.542969 143.207031 C 167.164062 136.765625 173.96875 129.386719 179.492188 121.140625 Z M 183.851562 113.289062 C 181.4375 115.785156 178.894531 118.089844 176.398438 120.511719 C 169.917969 126.800781 163.636719 133.152344 156.941406 139.21875 C 152.34375 143.402344 147.632812 147.710938 143.457031 152.304688 C 141.242188 154.746094 139.105469 157.226562 136.929688 159.707031 C 137.523438 159.113281 138.121094 158.519531 138.714844 157.925781 C 143.582031 152.96875 148.558594 147.890625 153.972656 143.453125 C 165.027344 134.410156 176.285156 125.390625 183.851562 113.289062 Z M 185.421875 110.054688 C 182.953125 111.683594 180.441406 113.273438 178.109375 115.167969 C 170.445312 121.535156 163.714844 128.910156 156.730469 135.984375 C 149.667969 143.101562 142.710938 150.570312 136.535156 158.542969 L 136.429688 158.707031 C 138.492188 156.316406 140.59375 153.917969 142.695312 151.5625 C 146.910156 146.929688 151.660156 142.613281 156.253906 138.390625 C 162.949219 132.328125 169.191406 125.976562 175.671875 119.6875 C 178.957031 116.578125 182.398438 113.5 185.421875 110.054688 Z M 171.839844 136.183594 C 169.898438 138.011719 167.875 139.769531 165.933594 141.5625 C 160.214844 146.808594 154.246094 151.875 147.96875 156.445312 C 150.761719 154.957031 153.589844 153.34375 156.320312 151.460938 C 162.5 147.253906 167.507812 142.011719 171.839844 136.183594 Z M 170.199219 120.835938 C 169.328125 121.410156 168.453125 121.984375 167.578125 122.554688 C 163.082031 126.453125 158.371094 130.765625 154.40625 134.988281 C 150.816406 138.828125 147.753906 142.910156 144.777344 147.066406 C 148.398438 143.027344 152.179688 139.09375 156.007812 135.238281 C 160.726562 130.453125 165.355469 125.511719 170.199219 120.835938 Z M 126.300781 58.539062 C 126.6875 63.820312 126.722656 69.167969 126.4375 74.496094 C 126.015625 82.566406 125.222656 90.464844 124.289062 98.566406 C 123.882812 102.039062 123.480469 105.59375 123.472656 109.121094 C 124.484375 103.980469 126.132812 98.882812 127.003906 93.4375 C 128.871094 82.023438 128.679688 70.03125 126.300781 58.539062 Z M 112.550781 53.019531 C 111.203125 65.152344 111.875 77.828125 114.847656 89.320312 C 116.277344 94.8125 118.25 100.113281 120.222656 105.449219 C 119.097656 100.371094 118.128906 95.285156 117.164062 90.199219 C 114.84375 77.75 112.652344 65.492188 112.550781 53.019531 Z M 114.007812 43.851562 C 114.011719 43.890625 113.976562 43.933594 113.976562 43.972656 C 112.664062 59.589844 115.351562 74.628906 118.222656 90.011719 C 119.136719 94.902344 120.085938 99.753906 121.160156 104.636719 C 121.164062 104.082031 121.207031 103.523438 121.25 103.003906 C 120.4375 98.421875 119.382812 93.816406 118.648438 89.269531 C 116.847656 78.136719 115.761719 66.953125 114.746094 55.6875 C 114.34375 51.398438 114.019531 47.613281 114.007812 43.851562 Z M 123.96875 49.5 C 124.664062 59.554688 124.417969 69.675781 123.601562 79.59375 C 123.160156 84.972656 123.589844 90.925781 123.03125 96.3125 C 122.878906 97.628906 122.726562 98.90625 122.570312 100.144531 C 122.625 101.011719 122.683594 101.882812 122.777344 102.746094 C 122.921875 101.3125 123.070312 99.914062 123.253906 98.476562 C 124.1875 90.371094 124.976562 82.476562 125.402344 74.445312 C 125.835938 66.53125 125.558594 58.703125 124.375 50.859375 C 124.273438 50.546875 124.214844 50.273438 124.117188 50.003906 C 124.070312 49.847656 124.015625 49.652344 123.96875 49.5 Z M 118.988281 24.308594 C 116.746094 39.035156 117.585938 54.3125 118.867188 69.007812 C 119.554688 77.085938 120.195312 85.046875 121.195312 93.0625 C 121.164062 92.589844 121.175781 92.15625 121.144531 91.679688 C 120.777344 84.257812 120.535156 76.941406 120.484375 69.496094 C 120.429688 55.992188 119.605469 37.976562 118.988281 24.308594 Z M 120.46875 33.601562 C 120.972656 45.496094 121.492188 58.890625 121.554688 69.507812 C 121.601562 76.914062 121.84375 84.226562 122.207031 91.609375 C 122.230469 91.925781 122.25 92.242188 122.269531 92.558594 C 122.421875 88.230469 122.242188 83.644531 122.601562 79.460938 C 123.566406 67.589844 123.714844 55.300781 122.371094 43.304688 C 121.609375 40.144531 121 36.855469 120.46875 33.601562 Z M 117.203125 30.328125 C 116.511719 33.070312 115.898438 35.804688 115.207031 38.542969 C 114.828125 44.234375 115.242188 49.355469 115.804688 55.539062 C 116.804688 66.570312 117.839844 77.554688 119.585938 88.453125 C 118.886719 82.003906 118.34375 75.582031 117.800781 69.078125 C 116.730469 56.390625 115.945312 43.167969 117.203125 30.328125 Z M 117.203125 30.328125 " fill-opacity="1" fill-rule="evenodd"/></g></g></g></svg>